<?xml version="1.0" encoding="utf-8"?>
<!-- Generator: Adobe Illustrator 19.2.0, SVG Export Plug-In . SVG Version: 6.00 Build 0)  -->
<svg version="1.1" id="Capa_1" xmlns="http://www.w3.org/2000/svg" xmlns:xlink="http://www.w3.org/1999/xlink" x="0px" y="0px"
	 viewBox="0 0 425.9 425.9" style="enable-background:new 0 0 425.9 425.9;" xml:space="preserve">
<style type="text/css">
	.st0{fill:#089FD7;}
</style>
<g>
	<g>
		<g>
			<path class="st0" d="M402.9,195.2h-58.4c-3.1-23.3-12.4-44.7-26-62.6l41.4-41.4c6.3-6.3,6.3-16.5,0-22.7l-2.4-2.4
				c-3-3-7.1-4.7-11.4-4.7s-8.3,1.7-11.4,4.7l-41.4,41.4c-17.9-13.6-39.3-22.9-62.6-26V23c0-8.9-7.2-16.1-16.1-16.1h-3.4
				c-8.9,0-16.1,7.2-16.1,16.1v58.4c-23.3,3.1-44.7,12.4-62.6,26L91.2,66.1c-3-3-7.1-4.7-11.4-4.7c-4.3,0-8.3,1.7-11.4,4.7l-2.4,2.4
				c-3,3-4.7,7.1-4.7,11.4c0,4.3,1.7,8.3,4.7,11.4l41.4,41.4c-13.6,17.9-22.9,39.3-26,62.6H23c-8.9,0-16.1,7.2-16.1,16.1v3.4
				c0,8.9,7.2,16.1,16.1,16.1h58.4c3.1,23.3,12.4,44.7,26,62.6l-41.4,41.4c-6.3,6.3-6.3,16.5,0,22.7l2.4,2.4c3,3,7.1,4.7,11.4,4.7
				s8.3-1.7,11.4-4.7l41.4-41.4c17.9,13.6,39.3,22.9,62.6,26v58.4c0,8.9,7.2,16.1,16.1,16.1h3.4c8.9,0,16.1-7.2,16.1-16.1v-58.4
				c23.3-3.1,44.7-12.4,62.6-26l41.4,41.4c3,3,7.1,4.7,11.4,4.7s8.3-1.7,11.4-4.7l2.4-2.4c6.3-6.3,6.3-16.5,0-22.7l-41.4-41.4
				c13.6-17.9,22.9-39.3,26-62.6h58.4c8.9,0,16.1-7.2,16.1-16.1v-3.4C419,202.4,411.8,195.2,402.9,195.2z M345.6,208.7h57.3
				c1.4,0,2.5,1.1,2.5,2.5v3.4c0,1.4-1.1,2.5-2.5,2.5h-57.3c0-1.4,0.1-2.8,0.1-4.2C345.7,211.6,345.7,210.1,345.6,208.7z
				 M350.3,347.9l-2.4,2.4c-0.6,0.6-1.4,0.7-1.8,0.7s-1.1-0.1-1.8-0.7l-40.6-40.6c2.1-1.9,4.1-3.9,6-6l40.6,40.6
				C351.3,345.3,351.3,346.9,350.3,347.9z M217.2,402.9c0,1.4-1.1,2.5-2.5,2.5h-3.4c-1.4,0-2.5-1.1-2.5-2.5v-57.3
				c1.4,0,2.8,0.1,4.2,0.1c1.4,0,2.8,0,4.2-0.1L217.2,402.9L217.2,402.9z M81.7,350.3c-0.6,0.6-1.4,0.7-1.8,0.7
				c-0.4,0-1.1-0.1-1.8-0.7l-2.4-2.4c-1-1-1-2.6,0-3.6l40.6-40.6c1.9,2.1,3.9,4.1,6,6L81.7,350.3z M122.2,116.2
				c-2.1,1.9-4.1,3.9-6,6L75.7,81.6c-0.6-0.6-0.7-1.4-0.7-1.8s0.1-1.1,0.7-1.8l2.4-2.4c0.6-0.6,1.4-0.7,1.8-0.7
				c0.4,0,1.1,0.1,1.8,0.7 M208.7,23c0-1.4,1.1-2.5,2.5-2.5h3.4c1.4,0,2.5,1.1,2.5,2.5v57.3c-1.4,0-2.8-0.1-4.2-0.1
				c-1.4,0-2.8,0-4.2,0.1L208.7,23L208.7,23z M20.5,211.3c0-1.4,1.1-2.5,2.5-2.5h57.3c0,1.4-0.1,2.8-0.1,4.2c0,1.4,0,2.8,0.1,4.2H23
				c-1.4,0-2.5-1.1-2.5-2.5C20.5,214.7,20.5,211.3,20.5,211.3z M213,332.2c-65.7,0-119.2-53.5-119.2-119.2
				c0-65.7,53.5-119.2,119.2-119.2c65.7,0,119.2,53.5,119.2,119.2C332.2,278.7,278.7,332.2,213,332.2z M346.1,74.9
				c0.4,0,1.1,0.1,1.8,0.7l2.4,2.4c1,1,1,2.6,0,3.6l-40.6,40.6c-1.9-2.1-3.9-4.1-6-6l40.6-40.6C344.9,75,345.7,74.9,346.1,74.9z"/>
			<path class="st0" d="M213,102.3L213,102.3C213,102.3,213,102.3,213,102.3C213,102.3,213,102.3,213,102.3
				c-61,0-110.7,49.7-110.7,110.7S151.9,323.7,213,323.7c61,0,110.7-49.7,110.7-110.7C323.7,151.9,274,102.3,213,102.3z
				 M206.2,116.1v70.5c-2.5,0.6-4.8,1.6-7,2.9l-50-49.8C164.7,126.2,184.5,117.6,206.2,116.1z M189.6,199c-1.3,2.2-2.4,4.6-3,7.2
				h-70.5c1.5-21.7,10.2-41.5,23.6-56.9L189.6,199z M186.6,219.7c0.6,2.5,1.7,4.9,2.9,7.1l-49.8,49.8
				c-13.5-15.5-22.1-35.2-23.6-56.9L186.6,219.7L186.6,219.7z M206.2,309.9c-21.7-1.5-41.5-10.2-56.9-23.6l49.8-49.8
				c2.2,1.3,4.6,2.3,7.1,3V309.9z M200.1,213c0-7.1,5.7-12.8,12.8-12.8c7.1,0,12.8,5.7,12.8,12.8c0,7.1-5.7,12.8-12.8,12.8
				C205.9,225.8,200.1,220.1,200.1,213z M276.7,139.7l-49.8,49.8c-2.2-1.3-4.6-2.3-7.1-2.9v-70.5
				C241.4,117.6,261.2,126.2,276.7,139.7z M219.7,309.9v-70.5c2.6-0.7,5-1.7,7.3-3.1l49.9,49.7C261.4,299.6,241.6,308.4,219.7,309.9
				z M236.5,226.6c1.2-2.1,2.2-4.4,2.8-6.9h70.5c-1.5,21.6-10.1,41.2-23.4,56.7L236.5,226.6z M239.4,206.2c-0.7-2.5-1.7-4.9-3-7.1
				l49.8-49.8c13.5,15.5,22.1,35.2,23.6,56.9L239.4,206.2L239.4,206.2z"/>
		</g>
	</g>
</g>
</svg>
